<svg xmlns="http://www.w3.org/2000/svg" width="221.759" height="36.512"><defs><style>.a{fill:#e50020}.c{fill:#004290}</style></defs><path class="a" d="M18.373 0a18.256 18.256 0 1 0 18.138 18.256A18.256 18.256 0 0 0 18.373 0z"/><path d="M30.895 15.681h-9.362v15.915h-6.549V15.681h-9.6V9.128h25.511v6.553z" fill="#fff"/><path class="c" d="M72.672 26.798v-17.2c0-3.16.585-3.745 3.394-3.745V4.798h-8.894l-7.841 22h-.117l-7.606-22h-8.777v1.053c2.809 0 3.394.585 3.394 3.745v17.202c0 3.16-.585 3.745-3.394 3.745v1.055h9.362v-1.055c-2.926 0-3.394-.585-3.394-3.745V7.958h.117l8.309 23.64h2.806l8.428-23.64h.117v18.84c0 3.16-.585 3.745-3.394 3.745v1.055h10.883v-1.055c-2.808 0-3.393-.585-3.393-3.745z"/><path class="c" d="M82.268 13.458c-5.149 0-8.075 2.809-8.075 8.66s3.511 9.947 9.479 9.947a15.33 15.33 0 0 0 5.383-1.053v-1.4a10.181 10.181 0 0 1-3.511.7c-5.5 0-7.021-5.5-7.021-9.479h10.883c0-3.277-1.053-7.255-7.021-7.255zm-3.862 5.734c0-1.521.819-4.447 3.745-4.447s3.277 1.989 3.277 4.447z"/><path class="c" d="M111.758 13.458c-3.16 0-4.564 2.692-5.266 4.447h-.117v-4.447l-5.734.819v-.351h-4.916V7.373h-1.17c-.234 2.926-1.4 6.9-5.968 6.9v1.053h3.16v11.59c0 4.564 2.809 5.032 6.2 5.032a6.2 6.2 0 0 0 2.106-.351h9.245v-.824c-2.223 0-2.926-.7-2.926-3.394v-4.33c0-3.979 1.755-6.319 2.926-6.319s1.053.936 2.34.936a2.05 2.05 0 1 0 0-4.1zm-9.245 13.809c0 2.692-.7 3.394-2.926 3.394h-.819c-1.989 0-3.16-1.17-3.16-3.745V15.448h4.8c1.17.117 2.106.819 2.106 3.043zm19.075-13.809c-5.617 0-8.309 3.043-8.309 9.245s2.692 9.245 8.309 9.245 8.309-3.043 8.309-9.245-2.692-9.245-8.309-9.245zm0 17.2c-3.394 0-4.1-3.862-4.1-7.958s.7-7.958 4.1-7.958 4.1 3.862 4.1 7.958-.709 7.958-4.1 7.958z"/><path class="a" d="M139.726 6.904h-9.245v-2.34h20.947v2.34h-9.247v24.809h-2.457V6.904z"/><path class="a" d="M147.683 18.958c0-1.287-.234-4.1-.234-5.032h2.34c0 1.287.117 2.809.117 3.043a6.319 6.319 0 0 1 5.617-3.511l1.287.234-.234 2.223h-.819c-3.979 0-5.734 2.809-5.734 6.2v9.6h-2.34V18.958zm23.99 5.383a54.179 54.179 0 0 0 .351 7.372h-2.106a17.083 17.083 0 0 1-.234-2.926h-.122a6.436 6.436 0 0 1-6.2 3.277c-3.043 0-6.2-1.521-6.2-5.266s6.319-5.968 9.83-5.968h2.692v-.936c0-3.043-2.106-4.33-5.032-4.33a7.957 7.957 0 0 0-5.383 1.989l-1.287-1.521a10.3 10.3 0 0 1 6.787-2.457c4.33 0 7.021 1.872 7.021 6.436v4.33zm-4.564-1.4c-3.862 0-7.606.936-7.606 3.979s2.106 3.277 3.979 3.277c4.915 0 6.2-3.16 6.2-6.085v-1.17zm7.139-3.984c0-1.287-.234-4.1-.234-5.032h2.34c0 1.287.117 2.809.117 3.043h.117a6.67 6.67 0 0 1 6.086-3.511c5.5 0 6.787 3.745 6.787 7.606v10.533h-2.34v-10.3c0-2.926-.819-5.617-4.447-5.617s-6.085 2.34-6.085 7.255v8.894h-2.34V18.957zm18.372 8.193a5.734 5.734 0 0 0 5.149 2.926c1.989 0 4.1-1.17 4.1-3.277 0-4.915-10.532-1.4-10.532-8.192 0-3.394 3.16-5.149 6.085-5.149s5.149 1.053 6.2 3.277l-2.106 1.17a4.33 4.33 0 0 0-4.213-2.457c-1.638 0-3.745 1.053-3.745 2.809 0 4.8 10.532 1.053 10.532 8.192 0 3.628-3.043 5.5-6.436 5.5s-5.734-1.17-7.138-3.628l1.989-1.4zm13.458-13.107h2.34v17.67h-2.34zm1.17-8.777a1.755 1.755 0 1 1-1.755 1.755 1.755 1.755 0 0 1 1.755-1.755zm14.277 10.883h-5.034v11.469a2.223 2.223 0 0 0 2.457 2.457 6.787 6.787 0 0 0 2.574-.585l.234 2.106a10.181 10.181 0 0 1-3.043.585c-3.277 0-4.564-1.989-4.564-4.564V16.149h-3.858v-2.106h3.862V8.894h2.34v5.149h5.032z"/></svg>